<svg aria-hidden="true" style="position: absolute; width: 0; height: 0; overflow: hidden;" version="1.1" xmlns="http://www.w3.org/2000/svg" xmlns:xlink="http://www.w3.org/1999/xlink">
<defs>
<symbol id="icon-modal-bg" viewBox="0 0 32 32">
 <path d="M32 3.223 28.777 0 16 12.777 3.223 0 0 3.223 12.777 16 0 28.777 3.223 32 16 19.223 28.777 32 32 28.777 19.223 16 32 3.223z"/>
    </symbol>
<symbol id="icon-group4" viewBox="0 0 59 32">
<path d="M30.589 15.68c-0.216-0.281-0.347-0.637-0.347-1.024 0-0.040 0.001-0.079 0.004-0.118l-0 0.005v-1.651c0-0.503 0.114-0.886 0.343-1.154 0.229-0.263 0.623-0.389 1.183-0.389 0.526 0 0.897 0.114 1.114 0.331 0.24 0.286 0.36 0.64 0.331 0.989v0.389h-0.931v-0.394c0-0.126-0.006-0.257-0.029-0.383-0.015-0.093-0.063-0.172-0.131-0.228l-0.001-0.001c-0.084-0.055-0.186-0.088-0.296-0.088-0.017 0-0.033 0.001-0.049 0.002l0.002-0c-0.014-0.001-0.030-0.002-0.047-0.002-0.116 0-0.225 0.035-0.315 0.095l0.002-0.001c-0.077 0.062-0.132 0.149-0.154 0.249l-0.001 0.003c-0.029 0.137-0.040 0.274-0.034 0.406v2.006c-0.017 0.194 0.023 0.389 0.114 0.56 0.051 0.057 0.114 0.114 0.194 0.137 0.056 0.023 0.122 0.037 0.191 0.037 0.017 0 0.035-0.001 0.051-0.003l-0.002 0c0.011 0.001 0.024 0.001 0.037 0.001 0.11 0 0.213-0.035 0.296-0.094l-0.002 0.001c0.074-0.060 0.126-0.146 0.143-0.243l0-0.002c0.023-0.131 0.029-0.263 0.029-0.4v-0.406h0.937v0.371c0.029 0.366-0.086 0.731-0.326 1.034-0.211 0.246-0.583 0.371-1.12 0.371-0.543 0-0.954-0.131-1.183-0.4zM34.503 15.697c-0.24-0.257-0.36-0.629-0.36-1.126v-1.737c0-0.486 0.12-0.857 0.36-1.109 0.234-0.257 0.629-0.377 1.189-0.377 0.554 0 0.949 0.126 1.183 0.377 0.24 0.251 0.36 0.623 0.36 1.109v1.737c0 0.491-0.12 0.869-0.36 1.126-0.246 0.257-0.634 0.389-1.183 0.389s-0.949-0.131-1.189-0.389zM36.131 15.28c0.080-0.16 0.12-0.337 0.114-0.514v-2.12c0.006-0.171-0.029-0.349-0.114-0.509-0.051-0.061-0.116-0.109-0.191-0.136l-0.003-0.001c-0.054-0.021-0.116-0.033-0.181-0.033-0.023 0-0.046 0.002-0.068 0.004l0.003-0c-0.019-0.002-0.041-0.004-0.064-0.004-0.065 0-0.128 0.012-0.185 0.034l0.004-0.001c-0.078 0.029-0.144 0.076-0.194 0.136l-0.001 0.001c-0.086 0.16-0.126 0.331-0.114 0.509v2.131c-0.011 0.177 0.029 0.354 0.114 0.514 0.057 0.057 0.12 0.097 0.194 0.126 0.072 0.029 0.155 0.046 0.243 0.046s0.171-0.017 0.247-0.048l-0.004 0.002c0.078-0.029 0.145-0.072 0.2-0.126l-0 0v-0.011zM38.366 11.4h1.011l0.76 3.2 0.777-3.2h0.983l0.103 4.623h-0.731l-0.074-3.217-0.754 3.217h-0.583l-0.777-3.229-0.074 3.229h-0.731l0.091-4.629zM43.131 11.4h1.577c0.909 0 1.36 0.434 1.36 1.314 0 0.834-0.474 1.257-1.429 1.257h-0.543v2.051h-0.971l0.006-4.629zM44.48 13.371c0.023 0.002 0.049 0.004 0.076 0.004 0.173 0 0.333-0.055 0.464-0.148l-0.002 0.002c0.109-0.16 0.16-0.343 0.137-0.526 0-0.137-0.011-0.28-0.046-0.417-0.016-0.049-0.042-0.091-0.074-0.126l0 0c-0.033-0.037-0.073-0.068-0.118-0.090l-0.002-0.001c-0.137-0.057-0.286-0.086-0.434-0.074h-0.377v1.377h0.377zM47.474 11.4h1.046l1.069 4.623h-0.903l-0.211-1.069h-0.937l-0.217 1.069h-0.914l1.069-4.629zM48.366 14.417l-0.366-1.943-0.36 1.943h0.726zM50.457 11.4h0.68l1.303 2.634v-2.634h0.806v4.623h-0.646l-1.314-2.754v2.754h-0.829v-4.629zM55.143 14.257l-1.086-2.857h0.914l0.657 1.84 0.623-1.834h0.891l-1.069 2.857v1.76h-0.937v-1.766zM32.091 18.040v0.246h-0.8v1.874h-0.326v-1.874h-0.8v-0.246h1.926zM34.577 20.16h-0.257c-0.002 0-0.005 0-0.008 0-0.022 0-0.043-0.006-0.061-0.018l0 0c-0.020-0.012-0.036-0.030-0.045-0.051l-0-0.001-0.229-0.503h-1.103l-0.229 0.503c-0.007 0.022-0.019 0.042-0.034 0.057v0c-0.019 0.014-0.043 0.023-0.069 0.023-0.002 0-0.004-0-0.006-0h-0.257l0.971-2.12h0.343l0.983 2.114zM32.966 19.377h0.92l-0.389-0.863c-0.026-0.054-0.051-0.121-0.071-0.189l-0.003-0.011-0.034 0.114-0.034 0.086-0.389 0.857zM36.257 19.954h0.183c0.107-0.008 0.206-0.031 0.299-0.065l-0.008 0.002 0.131-0.057v-0.474h-0.417c-0.009-0.004-0.017-0.010-0.023-0.017l-0-0c-0.007-0.004-0.013-0.010-0.017-0.017l-0-0v-0.183h0.754v0.811c-0.187 0.118-0.411 0.197-0.652 0.217l-0.005 0c-0.091 0.011-0.189 0.017-0.286 0.017-0.174-0.001-0.341-0.030-0.497-0.083l0.011 0.003c-0.15-0.053-0.279-0.128-0.39-0.224l0.002 0.001c-0.104-0.093-0.189-0.205-0.249-0.331l-0.003-0.006c-0.057-0.13-0.090-0.281-0.091-0.44v-0c-0-0.011-0.001-0.023-0.001-0.036 0-0.296 0.133-0.562 0.342-0.74l0.001-0.001c0.109-0.097 0.24-0.171 0.383-0.223 0.153-0.052 0.328-0.082 0.511-0.082 0.1 0 0.198 0.009 0.293 0.026l-0.010-0.002c0.16 0.023 0.304 0.071 0.436 0.141l-0.007-0.003c0.057 0.034 0.114 0.069 0.171 0.114l-0.097 0.126c-0.008 0.012-0.020 0.022-0.034 0.028l-0.001 0c-0.012 0.006-0.025 0.010-0.040 0.011h-0c-0.023-0-0.045-0.006-0.063-0.017l0.001 0c-0.041-0.017-0.072-0.032-0.104-0.049l0.006 0.003c-0.155-0.076-0.337-0.12-0.529-0.12-0.009 0-0.018 0-0.027 0l0.001-0c-0.126-0.006-0.257 0.011-0.377 0.057-0.215 0.069-0.384 0.227-0.467 0.429l-0.002 0.005c-0.086 0.229-0.086 0.469 0 0.703 0.046 0.097 0.114 0.189 0.2 0.263 0.147 0.135 0.344 0.218 0.561 0.218 0.038 0 0.075-0.003 0.112-0.008l-0.004 0zM39.354 19.92h1.063v0.24h-1.383v-2.114h0.331l-0.011 1.874zM41.526 20.16h-0.337v-2.114h0.337v2.114zM42.76 18.057c0.023 0 0.040 0.017 0.057 0.034l1.417 1.6v-1.657h0.286v2.126h-0.166c-0.023 0-0.046 0-0.069-0.011-0.022-0.010-0.041-0.024-0.057-0.040l-0-0-1.417-1.6v1.651h-0.28v-2.114h0.171l0.057 0.006zM46.971 18.040v0.234h-1.177v0.703h0.954v0.229h-0.954v0.72h1.177v0.229h-1.52v-2.114h1.52zM12.114 4.949l14.771 3.617v12.686l-14.771-3.617v-12.686zM11.166 3.863v14.389l16.663 4.080v-14.377l-16.663-4.086z"></path>
<path  d="M20.097 29.011l-16.669-4.097v-14.371l16.669 4.086v14.383z"></path>
<path  d="M11.44 4.783l14.583 3.577-6.206 5.349-14.577-3.571 6.2-5.354zM11.166 3.869l-7.737 6.674 16.669 4.086 7.731-6.674-16.663-4.086zM21.029 28.2l6.8-5.857-6.8-1.669v7.531z"></path>
</symbol>
<symbol id="icon-group2" viewBox="0 0 59 32">
<path  d="M13.76 12.297c-1.366 0-2.469 0.994-2.469 2.229 0 1.229 1.103 2.223 2.469 2.223 1.36 0 2.469-0.994 2.469-2.229 0-1.229-1.109-2.229-2.469-2.229zM31.977 11.583c0-1.703-0.754-3.343-2.097-4.549-1.327-1.174-3.083-1.892-5.007-1.892-0.014 0-0.028 0-0.041 0h0.002c-1.891 0-3.709 0.686-5.046 1.886-1.271 1.118-2.075 2.74-2.097 4.55l-0 0.004v9.417s14.286-1.434 14.286-9.411zM6.286 24.086c0.015 1.263 0.574 2.393 1.452 3.167l0.005 0.004c0.924 0.816 2.146 1.314 3.484 1.314 0.011 0 0.021-0 0.032-0h-0.002c0.009 0 0.020 0 0.031 0 1.336 0 2.556-0.498 3.483-1.319l-0.006 0.005c0.884-0.777 1.445-1.904 1.463-3.163l0-0.003v-6.554s-9.943 1-9.943 6.549zM11.257 25.263c-0.257 0-0.514-0.069-0.726-0.2-0.209-0.125-0.373-0.304-0.477-0.518l-0.003-0.007c-0.063-0.132-0.099-0.287-0.099-0.45 0-0.082 0.009-0.161 0.026-0.237l-0.001 0.007c0.057-0.241 0.185-0.446 0.359-0.599l0.001-0.001c0.246-0.212 0.568-0.342 0.921-0.342 0.178 0 0.349 0.033 0.506 0.093l-0.010-0.003c0.24 0.086 0.44 0.24 0.583 0.429 0.138 0.181 0.22 0.41 0.22 0.658 0 0.331-0.147 0.627-0.379 0.827l-0.001 0.001c-0.117 0.112-0.258 0.2-0.415 0.255l-0.008 0.002c-0.154 0.057-0.326 0.091-0.497 0.091v-0.006zM20.343 23.154v2.434h-0.497v-2.44h0.503zM21.314 24.194v0.389h-1.103v-0.389h1.109zM21.434 23.149v0.4h-1.223v-0.4h1.223zM23.731 24.314v0.114c0 0.183-0.029 0.354-0.074 0.497-0.057 0.149-0.126 0.274-0.217 0.377s-0.2 0.183-0.326 0.24c-0.126 0.057-0.269 0.080-0.423 0.080-0.012 0.001-0.026 0.001-0.040 0.001-0.282 0-0.535-0.124-0.708-0.32l-0.001-0.001c-0.091-0.103-0.16-0.229-0.211-0.377-0.051-0.146-0.080-0.315-0.080-0.49 0-0.002 0-0.005 0-0.007v0-0.114c0-0.189 0.029-0.354 0.080-0.497 0.046-0.149 0.114-0.274 0.211-0.377 0.091-0.109 0.2-0.183 0.326-0.24s0.269-0.080 0.423-0.080c0.006-0 0.013-0 0.020-0 0.288 0 0.547 0.123 0.728 0.32l0.001 0.001c0.182 0.226 0.292 0.517 0.292 0.834 0 0.014-0 0.028-0.001 0.042l0-0.002zM23.217 24.429v-0.114c0-0.131-0.006-0.246-0.029-0.343-0.020-0.095-0.056-0.179-0.105-0.254l0.002 0.003c-0.081-0.122-0.217-0.201-0.372-0.201-0.010 0-0.019 0-0.029 0.001l0.001-0c-0.005-0-0.010-0-0.016-0-0.157 0-0.295 0.079-0.377 0.199l-0.001 0.002c-0.040 0.069-0.074 0.149-0.097 0.246-0.023 0.103-0.034 0.217-0.034 0.343v0.12c0 0.131 0.011 0.24 0.034 0.343 0.023 0.097 0.057 0.183 0.103 0.246 0.046 0.069 0.103 0.12 0.171 0.154 0.065 0.036 0.143 0.058 0.226 0.058s0.161-0.021 0.228-0.059l-0.002 0.001c0.068-0.037 0.124-0.090 0.165-0.152l0.001-0.002c0.046-0.063 0.080-0.149 0.103-0.246 0.023-0.103 0.034-0.217 0.034-0.343zM25.36 24.949c0-0.003 0-0.007 0-0.010 0-0.037-0.006-0.073-0.018-0.106l0.001 0.002c-0.016-0.040-0.041-0.072-0.074-0.097l-0.001-0-0.143-0.091c-0.063-0.029-0.143-0.057-0.246-0.086l-0.314-0.12c-0.1-0.046-0.187-0.1-0.266-0.162l0.003 0.002c-0.074-0.057-0.131-0.131-0.171-0.206-0.043-0.078-0.069-0.172-0.069-0.272 0-0.003 0-0.006 0-0.009v0c0-0.001 0-0.002 0-0.003 0-0.099 0.025-0.193 0.070-0.274l-0.002 0.003c0.046-0.086 0.109-0.154 0.189-0.217 0.080-0.057 0.171-0.103 0.286-0.137 0.103-0.029 0.221-0.046 0.342-0.046 0.177 0 0.347 0.036 0.5 0.101l-0.008-0.003c0.131 0.063 0.234 0.149 0.309 0.263s0.114 0.24 0.114 0.389h-0.503c0-0.003 0-0.005 0-0.008 0-0.066-0.017-0.128-0.047-0.182l0.001 0.002c-0.031-0.054-0.076-0.097-0.13-0.125l-0.002-0.001c-0.063-0.033-0.137-0.052-0.216-0.052-0.004 0-0.009 0-0.013 0h0.001c-0.004-0-0.008-0-0.012-0-0.072 0-0.14 0.015-0.203 0.041l0.003-0.001c-0.055 0.023-0.1 0.060-0.131 0.108l-0.001 0.001c-0.029 0.041-0.046 0.092-0.046 0.146 0 0.001 0 0.002 0 0.002v-0c0 0.040 0.011 0.074 0.029 0.114l0.097 0.091c0.102 0.058 0.221 0.112 0.345 0.155l0.015 0.005c0.233 0.062 0.435 0.167 0.609 0.305l-0.003-0.003c0.127 0.115 0.206 0.281 0.206 0.465 0 0.005-0 0.010-0 0.016v-0.001c0 0.103-0.023 0.2-0.057 0.286-0.046 0.080-0.109 0.154-0.183 0.211-0.080 0.057-0.171 0.103-0.286 0.131-0.102 0.027-0.219 0.043-0.34 0.043-0.257 0-0.496-0.071-0.701-0.195l0.006 0.003c-0.097-0.063-0.171-0.149-0.229-0.246-0.057-0.103-0.086-0.223-0.086-0.36h0.503c0 0.080 0.011 0.143 0.034 0.194 0.029 0.057 0.057 0.097 0.103 0.126 0.040 0.034 0.091 0.057 0.154 0.074 0.057 0.011 0.126 0.023 0.194 0.023 0.086 0 0.16-0.017 0.217-0.040 0.098-0.040 0.166-0.134 0.166-0.244 0-0.003-0-0.005-0-0.008v0zM27.291 23.154v2.434h-0.497v-2.44h0.497zM28.046 23.154v0.389h-1.989v-0.394h1.989zM29.966 25.2v0.389h-1.297v-0.389h1.297zM28.834 23.149v2.44h-0.503v-2.44h0.503zM29.794 24.143v0.383h-1.126v-0.383h1.126zM29.966 23.154v0.389h-1.297v-0.394h1.297zM30.257 23.154h0.914c0.183 0 0.343 0.023 0.474 0.080 0.25 0.097 0.424 0.335 0.424 0.614 0 0.013-0 0.026-0.001 0.039l0-0.002c0 0.131-0.023 0.246-0.069 0.337-0.041 0.093-0.103 0.17-0.181 0.227l-0.002 0.001c-0.080 0.063-0.171 0.114-0.286 0.154l-0.154 0.080h-0.789v-0.389h0.583c0.002 0 0.004 0 0.006 0 0.077 0 0.15-0.019 0.213-0.053l-0.003 0.001c0.057-0.029 0.103-0.074 0.131-0.126 0.029-0.054 0.046-0.118 0.046-0.186 0-0.003-0-0.006-0-0.009v0c0-0.003 0-0.007 0-0.010 0-0.071-0.017-0.139-0.047-0.198l0.001 0.003c-0.029-0.057-0.074-0.103-0.13-0.131l-0.002-0.001c-0.060-0.029-0.131-0.046-0.206-0.046-0.006 0-0.012 0-0.017 0l0.001-0h-0.4v2.046h-0.509v-2.44zM31.623 25.589l-0.56-1.086h0.531l0.566 1.063v0.023h-0.537zM34.257 24.72h-0.623v-0.394h0.629c0.005 0 0.010 0 0.016 0 0.077 0 0.15-0.017 0.216-0.047l-0.003 0.001c0.057-0.029 0.103-0.074 0.131-0.131s0.046-0.12 0.046-0.194c-0.001-0.073-0.018-0.141-0.047-0.203l0.001 0.003c-0.028-0.064-0.073-0.117-0.13-0.153l-0.001-0.001c-0.062-0.036-0.136-0.057-0.216-0.057-0.005 0-0.009 0-0.014 0l0.001-0h-0.457v2.046h-0.497v-2.44h0.949c0.194 0 0.354 0.040 0.491 0.109 0.252 0.122 0.423 0.377 0.423 0.671 0 0.009-0 0.019-0.001 0.028l0-0.001c0 0.154-0.034 0.286-0.109 0.406-0.074 0.114-0.177 0.206-0.314 0.269-0.137 0.057-0.297 0.091-0.491 0.091zM37.154 25.2v0.389h-1.297v-0.389h1.297zM36.023 23.149v2.44h-0.503v-2.44h0.503zM36.983 24.143v0.383h-1.126v-0.383h1.126zM37.154 23.154v0.389h-1.297v-0.394h1.297zM38.571 23.154v2.434h-0.503v-2.44h0.503zM39.32 23.154v0.389h-1.989v-0.394h1.989zM41.24 25.2v0.389h-1.297v-0.389h1.297zM40.114 23.143v2.44h-0.503v-2.44h0.503zM41.080 24.137v0.383h-1.137v-0.383h1.131zM41.251 23.149v0.389h-1.309v-0.394h1.297zM41.537 23.149h0.914c0.183 0 0.343 0.023 0.48 0.080 0.251 0.106 0.423 0.349 0.423 0.633 0 0.006-0 0.013-0 0.019l0-0.001c0 0.131-0.029 0.246-0.069 0.337-0.046 0.091-0.109 0.171-0.189 0.229-0.080 0.063-0.171 0.114-0.28 0.154l-0.16 0.080h-0.789v-0.389h0.583c0.004 0 0.008 0 0.012 0 0.077 0 0.15-0.019 0.213-0.053l-0.002 0.001c0.057-0.029 0.103-0.074 0.131-0.126 0.029-0.054 0.046-0.118 0.046-0.186 0-0.003-0-0.006-0-0.009v0c0-0.003 0-0.007 0-0.010 0-0.071-0.017-0.139-0.047-0.198l0.001 0.003c-0.029-0.057-0.074-0.103-0.13-0.131l-0.002-0.001c-0.061-0.029-0.132-0.046-0.207-0.046-0.008 0-0.015 0-0.023 0.001l0.001-0h-0.4v2.046h-0.503v-2.44zM42.909 25.583l-0.56-1.086h0.531l0.56 1.063v0.023h-0.537zM45.006 24.943c0-0.003 0-0.007 0-0.010 0-0.037-0.006-0.073-0.018-0.106l0.001 0.002c-0.016-0.040-0.041-0.072-0.074-0.097l-0.001-0-0.143-0.091c-0.063-0.029-0.143-0.057-0.246-0.086l-0.314-0.12c-0.098-0.047-0.182-0.1-0.26-0.162l0.002 0.002c-0.146-0.105-0.24-0.274-0.24-0.466 0-0.007 0-0.014 0-0.021l-0 0.001c-0-0.004-0-0.009-0-0.013 0-0.095 0.023-0.185 0.065-0.264l-0.002 0.003c0.046-0.086 0.109-0.154 0.189-0.217 0.080-0.057 0.171-0.103 0.286-0.137 0.103-0.029 0.221-0.046 0.342-0.046 0.178 0 0.347 0.036 0.5 0.101l-0.008-0.003c0.131 0.063 0.234 0.149 0.309 0.263s0.114 0.24 0.114 0.389h-0.503c0-0.006 0-0.012 0-0.019 0-0.062-0.015-0.12-0.041-0.172l0.001 0.002c-0.032-0.055-0.079-0.098-0.135-0.125l-0.002-0.001c-0.063-0.033-0.138-0.052-0.216-0.052-0.004 0-0.008 0-0.013 0h0.001c-0.004-0-0.008-0-0.012-0-0.072 0-0.14 0.015-0.203 0.041l0.003-0.001c-0.055 0.023-0.1 0.060-0.131 0.108l-0.001 0.001c-0.029 0.041-0.046 0.092-0.046 0.146 0 0.001 0 0.002 0 0.002v-0c0 0.040 0.011 0.074 0.034 0.114 0.017 0.029 0.051 0.057 0.091 0.091 0.102 0.058 0.221 0.112 0.345 0.155l0.015 0.005c0.233 0.062 0.435 0.167 0.609 0.305l-0.003-0.003c0.127 0.115 0.206 0.281 0.206 0.465 0 0.005-0 0.010-0 0.016v-0.001c0 0.103-0.023 0.2-0.057 0.286-0.046 0.080-0.103 0.154-0.183 0.211s-0.171 0.103-0.286 0.131c-0.102 0.027-0.219 0.043-0.34 0.043-0.257 0-0.496-0.071-0.701-0.195l0.006 0.003c-0.097-0.063-0.171-0.149-0.229-0.246-0.057-0.103-0.086-0.223-0.086-0.36h0.503c0 0.080 0.011 0.143 0.040 0.194 0.023 0.057 0.057 0.097 0.097 0.126 0.040 0.034 0.091 0.057 0.154 0.074 0.057 0.011 0.126 0.023 0.194 0.023 0.002 0 0.005 0 0.007 0 0.076 0 0.148-0.015 0.214-0.041l-0.004 0.001c0.101-0.038 0.171-0.134 0.171-0.246 0-0.002-0-0.003-0-0.005v0z"></path>
</symbol>
<symbol id="icon-group3" viewBox="0 0 59 32">
<path  d="M15.314 25.354c0.137 0.16 0.211 0.354 0.206 0.554 0.006 0.131-0.017 0.263-0.074 0.383s-0.143 0.229-0.251 0.314c-0.274 0.189-0.611 0.28-0.949 0.257h-1.674v-3.503h1.64c0.32-0.023 0.64 0.057 0.903 0.229 0.109 0.080 0.189 0.183 0.246 0.297s0.080 0.234 0.074 0.36c0.006 0.194-0.057 0.383-0.189 0.537-0.131 0.137-0.303 0.234-0.503 0.274 0.229 0.034 0.423 0.143 0.571 0.297zM13.349 24.829h0.703c0.154 0.011 0.314-0.034 0.44-0.114 0.057-0.046 0.097-0.097 0.12-0.16 0.029-0.057 0.040-0.12 0.034-0.189 0-0.006 0.001-0.014 0.001-0.021 0-0.059-0.013-0.114-0.036-0.165l0.001 0.002c-0.027-0.061-0.066-0.113-0.114-0.154l-0.001-0c-0.114-0.076-0.254-0.122-0.404-0.122-0.019 0-0.037 0.001-0.055 0.002l0.002-0h-0.686v0.914zM14.56 26.171c0.057-0.046 0.103-0.097 0.131-0.16 0.022-0.048 0.035-0.105 0.035-0.165 0-0.010-0-0.021-0.001-0.031l0 0.001c0.001-0.010 0.002-0.022 0.002-0.035 0-0.060-0.013-0.117-0.037-0.168l0.001 0.002c-0.032-0.064-0.076-0.118-0.13-0.159l-0.001-0.001c-0.121-0.080-0.269-0.127-0.428-0.127-0.016 0-0.033 0-0.049 0.002l0.002-0h-0.737v0.954h0.743c0.171 0.011 0.331-0.034 0.469-0.12zM18.657 26.857l-0.914-1.366h-0.343v1.371h-0.783v-3.503h1.486c0.371-0.023 0.743 0.080 1.029 0.297 0.219 0.191 0.356 0.47 0.356 0.781 0 0.254-0.091 0.486-0.243 0.666l0.001-0.002c-0.183 0.194-0.434 0.32-0.709 0.36l0.971 1.4h-0.857zM17.4 25.017h0.646c0.446 0 0.669-0.177 0.669-0.531 0-0.006 0-0.013 0-0.020 0-0.069-0.015-0.135-0.042-0.195l0.001 0.003c-0.030-0.072-0.072-0.133-0.125-0.183l-0-0c-0.122-0.091-0.275-0.145-0.441-0.145-0.022 0-0.043 0.001-0.064 0.003l0.003-0h-0.651l0.011 1.069zM22.937 26.16h-1.56l-0.274 0.697h-0.823l1.434-3.457h0.886l1.429 3.463h-0.817l-0.274-0.703zM22.731 25.629l-0.571-1.486-0.571 1.486h1.143zM28.297 26.857h-0.777l-1.743-2.377v2.377h-0.777v-3.503h0.777l1.743 2.4v-2.4h0.777v3.503zM32.737 26.023c-0.16 0.263-0.406 0.48-0.703 0.617-0.343 0.154-0.714 0.229-1.091 0.223h-1.389v-3.503h1.389c0.377-0.011 0.749 0.063 1.086 0.211 0.303 0.137 0.549 0.349 0.709 0.611 0.152 0.265 0.241 0.582 0.241 0.92s-0.090 0.655-0.246 0.929l0.005-0.009zM31.846 25.937c0.229-0.229 0.343-0.526 0.343-0.834s-0.114-0.6-0.343-0.834c-0.242-0.187-0.549-0.3-0.883-0.3-0.031 0-0.062 0.001-0.092 0.003l0.004-0h-0.543v2.269h0.543c0.354 0.017 0.703-0.091 0.971-0.303zM23.429 3.869s10.034 3.411 9.823 8.343v8.36s-10.029-3.417-9.823-8.354v-8.349zM42.194 18.611c1.823-1.136 3.992-1.893 6.319-2.11l0.058-0.004v-2.617c-2.631 0.904-4.811 2.553-6.351 4.693l-0.026 0.038z"></path>
<path  d="M41.057 19.4c1.659-2.87 4.283-5.025 7.421-6.042l0.094-0.026v-7.531s-14.297 4.857-13.994 11.891v11.886s0.64-0.211 1.64-0.623c0-0.377 0-0.76 0.046-1.143 0.365-3.461 2.154-6.443 4.763-8.389l0.032-0.023z"></path>
<path d="M39.697 23.817c0.074-0.829 0.24-1.64 0.497-2.434-1.794 1.869-2.929 4.382-3.028 7.158l-0.001 0.019c1.2-0.514 2.105-0.95 2.992-1.417l-0.238 0.114c-0.174-0.735-0.273-1.58-0.273-2.447 0-0.35 0.016-0.695 0.048-1.037l-0.003 0.044zM40.263 23.857c-0.097 1.040-0.034 2.091 0.177 3.12 3.909-2.103 8.303-5.354 8.131-9.286v-0.343c-2.789 0.286-5.4 1.383-7.429 3.126-0.449 0.989-0.759 2.136-0.871 3.34l-0.003 0.043z"></path>
</symbol>
<symbol id="icon-group1" viewBox="0 0 59 32">
<path  d="M21.034 28.126l0.029 0.006 0.023 0.017 0.126 0.114c-0.103 0.097-0.223 0.171-0.354 0.229-0.16 0.057-0.331 0.086-0.509 0.080-0.16 0-0.32-0.023-0.469-0.074-0.268-0.088-0.48-0.285-0.586-0.537l-0.002-0.006c-0.053-0.123-0.083-0.266-0.083-0.416 0-0.155 0.033-0.303 0.092-0.436l-0.003 0.007c0.057-0.12 0.137-0.234 0.246-0.331 0.109-0.091 0.234-0.166 0.377-0.211 0.143-0.050 0.308-0.078 0.48-0.078 0.165 0 0.325 0.027 0.473 0.076l-0.011-0.003c0.12 0.046 0.24 0.114 0.337 0.189l-0.109 0.126c-0.006 0.009-0.014 0.016-0.023 0.023l-0 0c-0.011 0.007-0.025 0.012-0.040 0.012-0.002 0-0.004-0-0.006-0l0 0c-0.017-0.002-0.033-0.008-0.046-0.017l0 0-0.057-0.029-0.074-0.046c-0.117-0.058-0.255-0.092-0.4-0.092-0.014 0-0.028 0-0.042 0.001l0.002-0c-0.114 0-0.24 0.023-0.349 0.057-0.207 0.065-0.371 0.214-0.455 0.407l-0.002 0.005c-0.040 0.114-0.063 0.229-0.057 0.343-0.001 0.012-0.001 0.026-0.001 0.039 0 0.325 0.208 0.601 0.499 0.702l0.005 0.002c0.097 0.034 0.206 0.057 0.32 0.057l0.194-0.011c0.158-0.017 0.299-0.079 0.413-0.172l-0.001 0.001c0.016-0.016 0.038-0.027 0.063-0.029h0zM24.68 27.531c0 0.143-0.029 0.286-0.086 0.417-0.057 0.126-0.131 0.234-0.24 0.326-0.103 0.097-0.229 0.171-0.371 0.217-0.309 0.097-0.651 0.097-0.96 0-0.143-0.051-0.267-0.124-0.373-0.218l0.001 0.001c-0.101-0.089-0.182-0.197-0.238-0.32l-0.002-0.006c-0.114-0.274-0.114-0.571 0-0.84 0.057-0.126 0.137-0.234 0.24-0.331 0.109-0.091 0.229-0.16 0.371-0.206 0.143-0.049 0.308-0.077 0.48-0.077s0.337 0.028 0.491 0.080l-0.011-0.003c0.137 0.046 0.269 0.12 0.371 0.211 0.2 0.178 0.326 0.436 0.326 0.723 0 0.009-0 0.018-0 0.026l0-0.001zM24.349 27.531c0-0.114-0.017-0.229-0.057-0.337-0.077-0.197-0.237-0.347-0.435-0.41l-0.005-0.001c-0.229-0.074-0.474-0.074-0.697 0-0.104 0.036-0.194 0.090-0.269 0.16l0-0c-0.074 0.074-0.131 0.16-0.171 0.251-0.080 0.217-0.080 0.457 0 0.674 0.077 0.197 0.236 0.348 0.435 0.41l0.005 0.001c0.229 0.069 0.474 0.069 0.697 0 0.2-0.067 0.357-0.217 0.433-0.407l0.002-0.005c0.046-0.109 0.063-0.223 0.057-0.337zM27.166 27.886l0.029 0.074 0.080-0.149 0.806-1.257 0.046-0.034c0.016-0.004 0.034-0.006 0.053-0.006 0.006 0 0.011 0 0.017 0.001l-0.001-0h0.234v2.034h-0.286v-1.629l-0.806 1.269c-0.011 0.019-0.026 0.035-0.045 0.045l-0.001 0c-0.020 0.011-0.043 0.017-0.068 0.017-0 0-0 0-0.001 0h-0.046c-0.002 0-0.004 0-0.006 0-0.025 0-0.048-0.006-0.069-0.018l0.001 0c-0.019-0.011-0.035-0.026-0.045-0.045l-0-0.001-0.834-1.28v1.634h-0.274v-2.029h0.24l0.069 0.006c0.017 0.006 0.034 0.023 0.040 0.040l0.823 1.257c0.017 0.017 0.034 0.040 0.046 0.069zM30.194 27.783v0.766h-0.314v-2.034h0.703c0.137 0 0.269 0.011 0.4 0.046 0.097 0.023 0.194 0.063 0.274 0.126 0.13 0.108 0.211 0.269 0.211 0.449 0 0.003-0 0.006-0 0.008v-0c0 0.002 0 0.004 0 0.006 0 0.186-0.089 0.352-0.227 0.456l-0.001 0.001c-0.086 0.063-0.177 0.109-0.286 0.137-0.114 0.034-0.246 0.051-0.377 0.046h-0.383zM30.194 27.566h0.383c0.086 0 0.171-0.011 0.246-0.029 0.068-0.021 0.127-0.052 0.178-0.092l-0.001 0.001c0.087-0.071 0.143-0.178 0.143-0.298 0-0.004-0-0.007-0-0.011v0.001c0-0.006 0.001-0.014 0.001-0.021 0-0.050-0.011-0.098-0.030-0.141l0.001 0.002c-0.027-0.057-0.066-0.105-0.113-0.142l-0.001-0.001c-0.105-0.069-0.234-0.11-0.373-0.11-0.017 0-0.035 0.001-0.052 0.002l0.002-0h-0.383v0.84zM34.434 28.549h-0.246c-0.002 0-0.004 0-0.006 0-0.023 0-0.044-0.006-0.063-0.018l0.001 0c-0.017-0.012-0.030-0.027-0.040-0.045l-0-0.001-0.217-0.497h-1.080l-0.217 0.497c-0.009 0.019-0.023 0.034-0.040 0.045l-0 0c-0.018 0.011-0.040 0.018-0.063 0.018-0.004 0-0.008-0-0.012-0.001l0.001 0h-0.246l0.937-2.034h0.331l0.954 2.034zM32.874 27.794h0.891l-0.377-0.829c-0.026-0.055-0.049-0.119-0.067-0.186l-0.002-0.008-0.040 0.109-0.034 0.086-0.371 0.829zM35.8 26.52l0.046 0.040 1.383 1.531v-1.577h0.286v2.034h-0.16c-0.023 0-0.046 0-0.069-0.011-0.020-0.010-0.037-0.024-0.051-0.040l-0-0-1.371-1.531v1.583h-0.286v-2.034h0.166l0.057 0.006zM39.834 27.737v0.811h-0.314v-0.811l-0.874-1.223h0.286c0.001-0 0.002-0 0.003-0 0.022 0 0.043 0.006 0.061 0.017l-0-0 0.046 0.046 0.543 0.789c0.034 0.052 0.067 0.112 0.094 0.175l0.003 0.008 0.040-0.086 0.057-0.097 0.537-0.8c0.012-0.015 0.025-0.028 0.039-0.040l0.001-0c0.017-0.011 0.037-0.018 0.059-0.018 0.003 0 0.007 0 0.010 0l-0-0h0.286l-0.874 1.229zM27.006 23.097l0.417 0.034c2.106-0.791 3.86-2.111 5.157-3.801l0.020-0.027c1.149-1.503 1.841-3.409 1.841-5.476 0-0.056-0.001-0.111-0.002-0.167l0 0.008-2.343-2c0.154 0.66 0.243 1.419 0.243 2.198 0 1.498-0.327 2.919-0.915 4.196l0.026-0.063c-0.991 2.121-2.513 3.852-4.399 5.069l-0.047 0.029z"></path>
<path d="M26.171 23l0.057 0.011c2.065-1.234 3.683-3.028 4.667-5.173l0.030-0.072c0.914-2.114 1.063-4.411 0.429-6.594l-3.337-2.857c1.349 2.343 1.891 4.971 1.566 7.571-0.385 2.783-1.614 5.227-3.416 7.12l0.005-0.005zM37.503 16.023c-0.657 2.329-2.047 4.27-3.901 5.608l-0.030 0.021c-0.541 0.405-1.153 0.785-1.798 1.11l-0.071 0.032c1.664-0.415 3.119-1.138 4.369-2.111l-0.026 0.020c1.193-0.927 2.146-2.107 2.787-3.462l0.025-0.058-1.354-1.16z"></path>
<path d="M36.971 15.703l-1.931-1.651c-0.053 2.006-0.724 3.846-1.83 5.346l0.018-0.026c-1.212 1.639-2.803 2.933-4.646 3.764l-0.074 0.030h0.006c0.434 0 0.869-0.017 1.297-0.063 1.832-0.634 3.395-1.638 4.667-2.93l0.002-0.002c1.182-1.201 2.051-2.713 2.472-4.402l0.014-0.066zM26.451 7.114l-2.303-1.971c-2.047 0.663-3.771 1.853-5.066 3.411l-0.014 0.018c-1.179 1.424-1.902 3.262-1.926 5.269l-0 0.005c0.033 2.229 0.914 4.246 2.335 5.747l-0.004-0.004c1.503 1.64 3.6 2.8 5.966 3.309 1.992-2.014 3.297-4.713 3.529-7.712l0.003-0.042c0.012-0.198 0.018-0.43 0.018-0.663 0-2.79-0.956-5.357-2.558-7.391l0.019 0.026zM42.286 15.4c-0.006-2.474-1.16-4.84-3.2-6.589-2.051-1.704-4.711-2.738-7.613-2.738-0.036 0-0.071 0-0.107 0l0.005-0c-1.331 0-2.657 0.211-3.903 0.623l14.086 12.040c0.46-0.979 0.729-2.126 0.731-3.336v-0.001z"></path>
</symbol>
<symbol id="icon-union" viewBox="0 0 59 32">
<path  d="M21.714 4l4 3.817-7.429-0.006v18.514h19.429v-7.086l4 3.811v-19.051h-20zM37.543 18.8l-11.366-10.829h11.366v10.829zM34.011 23.611h-12.651v-12.446h0.897v11.6h11.754v0.846zM23.886 29.749l-0.474-0.971h-0.389l0.686 1.286v0.743h0.349v-0.743l0.686-1.286h-0.389l-0.469 0.971zM25.623 28.777h0.080l0.771 2.034h-0.371l-0.16-0.474h-0.789l-0.166 0.474h-0.366l0.766-2.034h0.234zM25.251 30.057h0.594l-0.297-0.857-0.297 0.857zM27.709 29.72c-0.065-0.074-0.121-0.159-0.163-0.251l-0.003-0.006c-0.028-0.063-0.044-0.136-0.044-0.214 0-0.096 0.025-0.185 0.068-0.263l-0.001 0.003c0.044-0.074 0.106-0.132 0.18-0.17l0.003-0.001c0.080-0.046 0.171-0.063 0.28-0.063 0.103 0 0.189 0.017 0.263 0.057 0.142 0.075 0.237 0.221 0.237 0.39 0 0.064-0.013 0.124-0.038 0.178l0.001-0.003c-0.026 0.055-0.058 0.102-0.097 0.143l0-0c-0.040 0.046-0.086 0.086-0.143 0.126l-0.137 0.103 0.4 0.474c0.058-0.108 0.091-0.236 0.091-0.371 0-0.002 0-0.004-0-0.006v0h0.286c0 0.097-0.006 0.189-0.029 0.28-0.028 0.126-0.079 0.238-0.15 0.334l0.002-0.002 0.297 0.354h-0.389l-0.114-0.137c-0.061 0.043-0.131 0.081-0.204 0.112l-0.007 0.003c-0.090 0.032-0.194 0.051-0.302 0.051-0.13 0-0.255-0.027-0.367-0.076l0.006 0.002c-0.095-0.047-0.173-0.117-0.227-0.203l-0.001-0.002c-0.049-0.081-0.078-0.179-0.078-0.284 0-0.083 0.018-0.162 0.051-0.233l-0.001 0.003c0.034-0.057 0.080-0.12 0.137-0.171 0.057-0.057 0.114-0.103 0.189-0.154zM27.869 29.926l-0.040 0.029c-0.044 0.032-0.082 0.070-0.113 0.113l-0.001 0.001c-0.034 0.053-0.055 0.117-0.055 0.186 0 0.057 0.014 0.111 0.039 0.159l-0.001-0.002c0.029 0.051 0.063 0.091 0.114 0.114 0.051 0.034 0.114 0.046 0.183 0.046 0.001 0 0.002 0 0.002 0 0.123 0 0.236-0.043 0.324-0.115l-0.001 0.001-0.451-0.531zM27.949 29.554l0.126-0.086c0.049-0.031 0.091-0.069 0.125-0.113l0.001-0.001c0.025-0.038 0.040-0.086 0.040-0.136 0-0.002-0-0.005-0-0.007v0c-0.003-0.108-0.091-0.195-0.2-0.195-0.004 0-0.008 0-0.012 0l0.001-0c-0.002-0-0.005-0-0.007-0-0.083 0-0.154 0.049-0.187 0.119l-0.001 0.001c-0.017 0.035-0.026 0.076-0.026 0.12 0 0.048 0.012 0.093 0.033 0.133l-0.001-0.002 0.086 0.137 0.023 0.029zM31.503 30.149h-0.343c-0.009 0.085-0.033 0.162-0.070 0.232l0.002-0.003c-0.032 0.060-0.081 0.107-0.141 0.136l-0.002 0.001c-0.063 0.029-0.138 0.046-0.216 0.046-0.009 0-0.017-0-0.026-0.001l0.001 0c-0.002 0-0.005 0-0.008 0-0.075 0-0.145-0.019-0.206-0.053l0.002 0.001c-0.059-0.034-0.107-0.080-0.142-0.135l-0.001-0.002c-0.038-0.061-0.068-0.131-0.085-0.207l-0.001-0.005c-0.015-0.077-0.023-0.165-0.023-0.256 0-0.009 0-0.017 0-0.026l-0 0.001v-0.166c0-0.109 0.006-0.206 0.029-0.286 0.017-0.086 0.051-0.16 0.091-0.217s0.086-0.097 0.149-0.131c0.055-0.026 0.12-0.040 0.188-0.040 0.006 0 0.013 0 0.019 0l-0.001-0c0.097 0 0.177 0.017 0.24 0.046 0.057 0.034 0.103 0.080 0.137 0.143 0.029 0.063 0.051 0.137 0.057 0.229h0.354c-0.017-0.137-0.057-0.257-0.114-0.366-0.065-0.104-0.154-0.187-0.259-0.244l-0.004-0.002c-0.11-0.055-0.239-0.086-0.375-0.086-0.013 0-0.025 0-0.038 0.001l0.002-0c-0.126 0-0.24 0.017-0.343 0.063s-0.189 0.114-0.263 0.194c-0.14 0.174-0.225 0.398-0.225 0.642 0 0.022 0.001 0.043 0.002 0.064l-0-0.003v0.171c0 0.143 0.017 0.274 0.057 0.389 0.040 0.12 0.091 0.223 0.166 0.303 0.137 0.162 0.34 0.263 0.567 0.263 0.009 0 0.019-0 0.028-0.001l-0.001 0c0.166 0 0.303-0.029 0.417-0.091 0.114-0.057 0.206-0.143 0.269-0.246 0.057-0.103 0.097-0.223 0.114-0.354zM33.446 29.851v-0.114c0-0.149-0.023-0.286-0.063-0.411-0.040-0.114-0.097-0.229-0.171-0.309-0.072-0.083-0.162-0.149-0.264-0.192l-0.005-0.002c-0.098-0.043-0.212-0.069-0.333-0.069-0.004 0-0.007 0-0.011 0h0.001c-0.126 0-0.24 0.023-0.343 0.069-0.209 0.099-0.366 0.278-0.433 0.497l-0.002 0.006c-0.040 0.115-0.063 0.247-0.063 0.384 0 0.010 0 0.019 0 0.029l-0-0.001v0.114c0 0.154 0.017 0.286 0.057 0.411 0.046 0.126 0.103 0.229 0.177 0.314 0.141 0.162 0.348 0.263 0.578 0.263 0.010 0 0.020-0 0.029-0.001l-0.001 0c0.126 0 0.24-0.023 0.343-0.069 0.215-0.094 0.377-0.278 0.439-0.503l0.001-0.005c0.040-0.12 0.057-0.257 0.057-0.411zM33.091 29.737v0.114c0 0.114-0.011 0.211-0.034 0.303-0.017 0.086-0.051 0.16-0.091 0.217s-0.091 0.104-0.152 0.136l-0.002 0.001c-0.059 0.029-0.128 0.046-0.201 0.046-0.004 0-0.007-0-0.011-0h0.001c-0.002 0-0.004 0-0.006 0-0.073 0-0.141-0.017-0.202-0.047l0.003 0.001c-0.063-0.034-0.114-0.080-0.153-0.136l-0.001-0.001c-0.040-0.057-0.074-0.131-0.097-0.217-0.022-0.086-0.034-0.186-0.034-0.288 0-0.005 0-0.011 0-0.016v0.001-0.114c0-0.114 0.011-0.211 0.034-0.303 0.023-0.086 0.057-0.16 0.097-0.217s0.091-0.103 0.154-0.131c0.057-0.034 0.126-0.046 0.206-0.046 0.002-0 0.004-0 0.006-0 0.073 0 0.141 0.017 0.202 0.047l-0.003-0.001c0.063 0.029 0.114 0.074 0.154 0.131 0.046 0.057 0.080 0.131 0.097 0.217 0.023 0.091 0.034 0.189 0.034 0.303z"></path>
</symbol>
<symbol id="icon-group" viewBox="0 0 59 32">
<path d="M28.634 3.389h-0.074l-0.36-0.011h-0.263c-0.017-0-0.036-0-0.056-0-0.242 0-0.482 0.006-0.72 0.019l0.033-0.001c-2.080 0.114-4.114 0.64-6.006 1.531l-0.246 0.12v12.651l0.577-0.194c1.852-0.667 3.99-1.065 6.216-1.091l0.012-0v1.663l-0.606 0.017h-0.046c-2.881 0.16-5.544 0.956-7.896 2.248l0.096-0.048v-16.234c1.282-0.76 2.764-1.38 4.334-1.78l0.118-0.025c1.256-0.337 2.698-0.532 4.186-0.537h0.249c1.043 0.003 2.052 0.139 3.015 0.39l-0.084-0.019v1.64c-0.582-0.144-1.273-0.253-1.98-0.306l-0.043-0.003h-0.040c-0.143-0.011-0.286-0.029-0.417-0.029zM31.514 5.063c0.323 0.021 0.7 0.032 1.080 0.032 1.579 0 3.111-0.204 4.571-0.586l-0.125 0.028c1.611-0.41 3.022-0.976 4.334-1.699l-0.094 0.047v15.937c-1.281 0.762-2.764 1.383-4.333 1.786l-0.118 0.026c-1.371 0.349-2.777 0.531-4.189 0.537-0.029 0-0.063 0-0.097 0-1.096 0-2.159-0.138-3.174-0.397l0.089 0.019v-16.040c0.593 0.145 1.296 0.254 2.015 0.306l0.042 0.002zM39.629 5.189l-0.577 0.194c-1.919 0.691-4.133 1.090-6.441 1.090-0.361 0-0.721-0.010-1.077-0.029l0.050 0.002-0.469-0.029v13.011l0.4 0.034c0.331 0.025 0.716 0.040 1.105 0.040 1.353 0 2.666-0.175 3.916-0.504l-0.107 0.024c1.131-0.291 2.112-0.656 3.042-1.11l-0.094 0.041 0.251-0.114v-12.651z"></path>
<path  d="M20.423 25.834c-0.156-0.159-0.373-0.258-0.613-0.258-0.012 0-0.023 0-0.035 0.001l0.002-0c-0.126 0-0.251 0.023-0.371 0.069-0.321 0.129-0.544 0.437-0.544 0.798 0 0.015 0 0.030 0.001 0.044l-0-0.002v2.171c0 0.149 0.023 0.303 0.086 0.44 0.057 0.114 0.126 0.211 0.217 0.291 0.086 0.074 0.189 0.126 0.297 0.154s0.217 0.046 0.326 0.046c0.498-0.010 0.897-0.415 0.897-0.914 0-0 0-0 0-0v0-0.24h-0.571v0.189c0.006 0.069 0 0.137-0.029 0.194-0.018 0.049-0.045 0.091-0.080 0.126v0c-0.065 0.049-0.146 0.079-0.234 0.080h-0c-0.011 0.002-0.025 0.003-0.038 0.003-0.094 0-0.178-0.046-0.23-0.116l-0.001-0.001c-0.050-0.078-0.080-0.173-0.080-0.276 0-0.005 0-0.011 0-0.016l-0 0.001v-2.023c0-0.114 0.023-0.223 0.074-0.32 0.051-0.081 0.14-0.133 0.242-0.133 0.012 0 0.023 0.001 0.034 0.002l-0.001-0c0.003-0 0.006-0 0.010-0 0.098 0 0.186 0.047 0.241 0.119l0.001 0.001c0.061 0.077 0.097 0.175 0.097 0.282 0 0.001 0 0.003-0 0.004v-0 0.194h0.56v-0.223c0-0.002 0-0.005 0-0.008 0-0.261-0.098-0.499-0.258-0.679l0.001 0.001zM23.789 25.811c-0.174-0.146-0.4-0.234-0.647-0.234-0.12 0-0.236 0.021-0.342 0.059l0.007-0.002c-0.114 0.040-0.211 0.097-0.297 0.171-0.097 0.091-0.171 0.194-0.223 0.309-0.057 0.131-0.086 0.274-0.080 0.423v2.074c-0.006 0.149 0.023 0.291 0.080 0.429 0.051 0.114 0.126 0.211 0.223 0.286 0.086 0.086 0.183 0.149 0.297 0.189 0.1 0.037 0.216 0.059 0.337 0.059s0.237-0.022 0.344-0.061l-0.007 0.002c0.353-0.122 0.602-0.451 0.602-0.839 0-0.020-0.001-0.041-0.002-0.061l0 0.003v-2.080c0.001-0.012 0.001-0.026 0.001-0.040 0-0.27-0.114-0.514-0.297-0.685l-0.001-0zM23.526 28.611c0.001 0.009 0.001 0.020 0.001 0.031 0 0.107-0.044 0.203-0.115 0.272l-0 0c-0.072 0.059-0.164 0.096-0.266 0.096s-0.194-0.036-0.266-0.096l0.001 0.001c-0.071-0.068-0.116-0.163-0.116-0.269 0-0.012 0.001-0.023 0.002-0.035l-0 0.001v-2.074c-0.001-0.010-0.002-0.022-0.002-0.033 0-0.106 0.044-0.202 0.116-0.269l0-0c0.072-0.059 0.164-0.096 0.266-0.096s0.194 0.036 0.266 0.096l-0.001-0.001c0.071 0.068 0.116 0.163 0.116 0.269 0 0.012-0.001 0.023-0.002 0.035l0-0.001v2.074zM28.211 29.543v-3.943h-0.549l-0.714 2.086h-0.011l-0.72-2.086h-0.537v3.937h0.56v-2.4h0.011l0.549 1.697h0.286l0.554-1.691h0.006v2.394h0.566zM31.406 25.886c-0.086-0.103-0.194-0.171-0.32-0.217-0.117-0.040-0.251-0.063-0.391-0.063-0.005 0-0.010 0-0.016 0h-0.834v3.937h0.56v-1.543h0.286c0.177 0.011 0.349-0.023 0.509-0.103 0.227-0.142 0.387-0.371 0.433-0.64l0.001-0.006c0.022-0.132 0.035-0.285 0.035-0.44 0-0.2-0.021-0.395-0.061-0.584l0.003 0.018c-0.039-0.143-0.11-0.266-0.206-0.366l0 0zM31.12 27.086c-0.005 0.074-0.026 0.142-0.058 0.203l0.001-0.003c-0.034 0.057-0.080 0.114-0.143 0.137-0.073 0.036-0.159 0.057-0.249 0.057-0.005 0-0.009-0-0.014-0h-0.256v-1.343h0.286c0.006-0 0.013-0 0.020-0 0.086 0 0.168 0.019 0.241 0.053l-0.004-0.001c0.057 0.029 0.103 0.080 0.131 0.143 0.028 0.064 0.045 0.139 0.046 0.217v0.538zM34.057 25.606h-0.457l-0.857 3.937h0.56l0.166-0.846h0.76l0.171 0.846h0.554l-0.886-3.937zM33.543 28.16l0.28-1.429h0.006l0.274 1.429h-0.56zM37.686 27.977h-0.011l-0.846-2.371h-0.537v3.937h0.56v-2.366h0.011l0.851 2.366h0.526v-3.943h-0.56v2.371zM41.114 25.606l-0.457 1.566h-0.006l-0.457-1.566h-0.589l0.771 2.274v1.657h0.56v-1.657l0.771-2.274h-0.594zM18.857 30.651h0.269v0.76h0.183v-0.76h0.269v-0.154h-0.72v0.154zM21.131 30.497l-0.354 0.914h0.194l0.074-0.206h0.366l0.074 0.206h0.2l-0.36-0.914h-0.194zM21.103 31.051l0.12-0.343 0.126 0.343h-0.246zM23.371 31.074h0.217v0.114c-0.059 0.049-0.134 0.079-0.217 0.080h-0c-0.005 0-0.010 0.001-0.015 0.001-0.072 0-0.137-0.034-0.178-0.086l-0-0c-0.043-0.061-0.069-0.137-0.069-0.219 0-0.007 0-0.014 0.001-0.022l-0 0.001c0-0.2 0.086-0.303 0.263-0.303 0.005-0.001 0.012-0.001 0.018-0.001 0.089 0 0.165 0.060 0.187 0.142l0 0.001 0.183-0.034c-0.040-0.177-0.171-0.269-0.389-0.269-0.005-0-0.011-0-0.017-0-0.116 0-0.223 0.043-0.303 0.115l0-0c-0.082 0.081-0.133 0.193-0.133 0.318 0 0.013 0.001 0.026 0.002 0.038l-0-0.002c0 0.126 0.034 0.251 0.114 0.343 0.081 0.085 0.196 0.138 0.322 0.138 0.009 0 0.018-0 0.027-0.001l-0.001 0c0.001 0 0.003 0 0.004 0 0.148 0 0.283-0.056 0.385-0.149l-0 0v-0.36h-0.4v0.154zM25.669 30.497h-0.183v0.914h0.64v-0.154h-0.457v-0.76zM27.611 30.497h-0.189v0.914h0.189v-0.914zM29.509 31.109l-0.377-0.611h-0.177v0.914h0.171v-0.594l0.366 0.594h0.183v-0.914h-0.171v0.611zM31.223 31.011h0.457v-0.154h-0.457v-0.206h0.486v-0.154h-0.674v0.914h0.697v-0.154h-0.514v-0.246zM35.377 30.857h-0.36v-0.36h-0.183v0.914h0.183v-0.4h0.36v0.4h0.183v-0.914h-0.183v0.36zM37.103 31.011h0.457v-0.154h-0.457v-0.206h0.491v-0.154h-0.674v0.914h0.691v-0.154h-0.509v-0.246zM39.44 31.011c0.16-0.029 0.24-0.114 0.24-0.257 0.001-0.008 0.002-0.017 0.002-0.026 0-0.071-0.034-0.134-0.087-0.174l-0.001-0c-0.069-0.037-0.151-0.058-0.237-0.058-0.011 0-0.022 0-0.033 0.001l0.001-0h-0.389v0.914h0.183v-0.383h0.034c0.040 0 0.080 0.006 0.114 0.023 0.029 0.017 0.057 0.040 0.069 0.069l0.2 0.286h0.217l-0.114-0.171c-0.046-0.091-0.114-0.171-0.2-0.229zM39.257 30.886h-0.137v-0.229h0.143c0.015-0.001 0.031-0.002 0.049-0.002 0.050 0 0.098 0.007 0.144 0.020l-0.004-0.001c0.029 0.021 0.047 0.055 0.047 0.092 0 0.040-0.021 0.076-0.052 0.096l-0 0c-0.047 0.015-0.1 0.024-0.156 0.024-0.012 0-0.023-0-0.034-0.001l0.002 0zM41.206 31.011h0.457v-0.154h-0.457v-0.206h0.491v-0.154h-0.674v0.914h0.691v-0.154h-0.509v-0.246z"></path>
</symbol>
<symbol id="icon-antenna1" viewBox="0 0 32 32">
<path fill="#2e2f42" style="fill: var(--color2, #2e2f42)" d="M30.773 22.098l-8.443-8.505 0.937-4.615c0.242 0.094 0.499 0.144 0.758 0.146h0.006c1.192 0.014 2.17-0.941 2.184-2.133s-0.941-2.17-2.133-2.184c-1.192-0.014-2.17 0.941-2.184 2.133-0.003 0.255 0.039 0.509 0.125 0.749l-4.96 0.605-8.091-8.133c-0.099-0.101-0.235-0.159-0.377-0.16-0.14 0.001-0.274 0.056-0.373 0.155l-1.513 1.504c-0.208 0.208-0.208 0.546 0 0.754l0.814 0.826c-3.153 5.798-2.129 12.978 2.519 17.663 0.043 0.041 0.092 0.074 0.146 0.098-0.034 0.18-0.051 0.364-0.052 0.547v6.187h-6.4c-1.472 0.002-2.665 1.195-2.667 2.667v1.067c0 0.295 0.239 0.533 0.533 0.533h24.533c0.295 0 0.533-0.239 0.533-0.533v-1.067c-0.002-1.472-1.195-2.665-2.667-2.667h-6.4v-2.742c1.003 0.21 2.024 0.317 3.049 0.32 2.458-0.003 4.877-0.615 7.040-1.783l0.818 0.823c0.099 0.101 0.235 0.159 0.377 0.16 0.14-0.001 0.274-0.056 0.373-0.155l1.513-1.504c0.208-0.208 0.208-0.546 0-0.754zM23.28 6.233c0.418-0.415 1.093-0.414 1.509 0.004s0.414 1.093-0.004 1.508c-0.2 0.199-0.47 0.31-0.752 0.31h-0.003c-0.589-0.003-1.064-0.483-1.061-1.072 0.002-0.282 0.115-0.552 0.314-0.751h-0.002zM22.024 9.738l-0.598 2.946-1.175-1.182 1.774-1.763zM21.419 8.836l-1.92 1.909-1.485-1.493 3.405-0.415zM24.004 28.8c0.884 0 1.6 0.716 1.6 1.6v0.533h-23.467v-0.533c0-0.884 0.716-1.6 1.6-1.6h20.267zM16.537 26.667v1.067h-5.333v-1.067h5.333zM11.204 25.6v-4.053c0-1.294 1.196-2.347 2.667-2.347s2.667 1.053 2.667 2.347v4.053h-5.333zM17.604 23.904v-2.357c0-1.882-1.675-3.413-3.733-3.413-1.331-0.020-2.576 0.657-3.281 1.786-4.058-4.274-4.971-10.645-2.279-15.887l18.602 18.708c-2.872 1.461-6.165 1.873-9.309 1.163zM28.893 23.22l-21.057-21.181 0.755-0.752 7.935 7.98c0.004 0 0.006 0.007 0.010 0.010l13.115 13.191-0.757 0.752z"></path>
<path fill="#4d5ae5" style="fill: var(--color3, #4d5ae5)" d="M13.876 20.267h-0.005c-0.884-0.001-1.601 0.714-1.602 1.598s0.714 1.601 1.598 1.602h0.005c0.884 0.001 1.601-0.714 1.602-1.598s-0.714-1.601-1.598-1.602zM14.249 22.245c-0.1 0.1-0.236 0.156-0.378 0.155-0.295-0.002-0.532-0.242-0.531-0.536 0.001-0.141 0.057-0.276 0.157-0.375s0.233-0.154 0.373-0.155c0.295 0.002 0.532 0.242 0.531 0.536-0.001 0.141-0.057 0.276-0.157 0.375h0.005z"></path>
</symbol>
<symbol id="icon-astronaut-1" viewBox="0 0 32 32">
<path fill="#4d5ae5" style="fill: var(--color3, #4d5ae5)" d="M31.974 4.524c-0.063-0.193-0.229-0.333-0.43-0.363l-1.91-0.278-0.855-1.731c-0.179-0.365-0.777-0.365-0.956 0l-0.855 1.731-1.91 0.278c-0.201 0.029-0.367 0.17-0.431 0.363-0.062 0.193-0.011 0.405 0.135 0.547l1.383 1.348-0.326 1.903c-0.034 0.2 0.048 0.402 0.212 0.522 0.166 0.121 0.382 0.135 0.562 0.040l1.709-0.899 1.709 0.899c0.078 0.041 0.164 0.061 0.249 0.061 0.11 0 0.221-0.034 0.314-0.102 0.164-0.119 0.246-0.322 0.212-0.522l-0.326-1.903 1.383-1.348c0.145-0.142 0.197-0.354 0.135-0.547zM29.511 5.851c-0.125 0.122-0.183 0.299-0.153 0.472l0.191 1.114-1-0.526c-0.078-0.041-0.163-0.061-0.249-0.061s-0.17 0.020-0.249 0.061l-1.001 0.526 0.191-1.114c0.030-0.173-0.028-0.349-0.153-0.472l-0.81-0.789 1.119-0.163c0.174-0.025 0.324-0.134 0.402-0.292l0.5-1.013 0.5 1.013c0.078 0.157 0.228 0.267 0.402 0.292l1.119 0.163-0.809 0.789z"></path>
<path fill="#4d5ae5" style="fill: var(--color3, #4d5ae5)" d="M26.134 20.522h-1.067v1.067h1.067v-1.067z"></path>
<path fill="#4d5ae5" style="fill: var(--color3, #4d5ae5)" d="M26.134 22.656h-1.067v1.067h1.067v-1.067z"></path>
<path fill="#4d5ae5" style="fill: var(--color3, #4d5ae5)" d="M27.2 21.589h-1.067v1.067h1.067v-1.067z"></path>
<path fill="#4d5ae5" style="fill: var(--color3, #4d5ae5)" d="M25.067 21.589h-1.067v1.067h1.067v-1.067z"></path>
<path fill="#4d5ae5" style="fill: var(--color3, #4d5ae5)" d="M22.4 26.389h-1.067v1.067h1.067v-1.067z"></path>
<path fill="#4d5ae5" style="fill: var(--color3, #4d5ae5)" d="M22.4 28.522h-1.067v1.067h1.067v-1.067z"></path>
<path fill="#4d5ae5" style="fill: var(--color3, #4d5ae5)" d="M23.467 27.456h-1.067v1.067h1.067v-1.067z"></path>
<path fill="#4d5ae5" style="fill: var(--color3, #4d5ae5)" d="M21.333 27.456h-1.067v1.067h1.067v-1.067z"></path>
<path fill="#4d5ae5" style="fill: var(--color3, #4d5ae5)" d="M16 24.256h-1.067v1.067h1.067v-1.067z"></path>
<path fill="#4d5ae5" style="fill: var(--color3, #4d5ae5)" d="M16 26.389h-1.067v1.067h1.067v-1.067z"></path>
<path fill="#4d5ae5" style="fill: var(--color3, #4d5ae5)" d="M17.067 25.322h-1.067v1.067h1.067v-1.067z"></path>
<path fill="#4d5ae5" style="fill: var(--color3, #4d5ae5)" d="M14.933 25.322h-1.067v1.067h1.067v-1.067z"></path>
<path fill="#4d5ae5" style="fill: var(--color3, #4d5ae5)" d="M5.867 6.122h-1.067v1.067h1.067v-1.067z"></path>
<path fill="#4d5ae5" style="fill: var(--color3, #4d5ae5)" d="M5.867 8.255h-1.067v1.067h1.067v-1.067z"></path>
<path fill="#4d5ae5" style="fill: var(--color3, #4d5ae5)" d="M6.933 7.189h-1.067v1.067h1.067v-1.067z"></path>
<path fill="#4d5ae5" style="fill: var(--color3, #4d5ae5)" d="M4.8 7.189h-1.067v1.067h1.067v-1.067z"></path>
<path fill="#2e2f42" style="fill: var(--color2, #2e2f42)" d="M24.715 14.159c-0.287-0.388-0.709-0.637-1.188-0.705-0.481-0.068-0.956 0.058-1.34 0.352l-1.252 0.96-1.898 1.417-1.358-0.541c2.421-1.086 4.114-3.508 4.114-6.32 0-3.823-3.123-6.933-6.961-6.933s-6.961 3.11-6.961 6.933c0 1.386 0.414 2.674 1.12 3.758l-2.764-0.024c-0.002 0-0.003 0-0.005 0-0.009 0-0.015 0.004-0.023 0.005-0.053 0.002-0.105 0.013-0.155 0.031-0.013 0.005-0.026 0.008-0.038 0.013-0.006 0.003-0.013 0.003-0.019 0.006l-3.233 1.596c-0.001 0-0.001 0-0.001 0.001l-1.893 0.911c-0.021 0.009-0.042 0.021-0.063 0.035-0.755 0.502-1.012 1.489-0.598 2.295 0.22 0.429 0.595 0.745 1.056 0.889 0.178 0.055 0.359 0.083 0.539 0.083 0.29 0 0.577-0.071 0.839-0.211l1.388-0.738 2.264-1.169 1.357-0.008-5.442 5.416c-0.001 0.001-0.001 0.001-0.002 0.001l-1.339 1.333c-0.316 0.315-0.49 0.732-0.49 1.178s0.174 0.863 0.49 1.179c0.325 0.323 0.752 0.485 1.179 0.485s0.854-0.162 1.18-0.485l1.314-1.309 1.741-1.3 0.901 0.897-1.762 1.754c-0 0.001-0.001 0.001-0.002 0.001l-1.339 1.333c-0.316 0.315-0.49 0.732-0.49 1.178s0.174 0.863 0.49 1.179c0.325 0.323 0.753 0.485 1.18 0.485s0.855-0.162 1.18-0.485l3.482-3.467c0.001-0.001 0.001-0.001 0.001-0.002l1.010-1-0.004-0.004c0.006-0.006 0.015-0.009 0.022-0.015l5.166-5.658 3.471 0.494c0.025 0.004 0.050 0.005 0.075 0.005 0.065 0 0.127-0.015 0.187-0.038 0.018-0.006 0.033-0.015 0.050-0.023 0.019-0.010 0.039-0.015 0.058-0.027l3.213-2.133c0.012-0.008 0.018-0.021 0.029-0.029 0.013-0.010 0.029-0.014 0.041-0.026l1.271-1.191c0.662-0.62 0.753-1.635 0.212-2.362zM2.13 17.77c-0.173 0.093-0.37 0.111-0.558 0.052-0.187-0.058-0.338-0.186-0.427-0.358-0.161-0.314-0.068-0.695 0.214-0.902l1.314-0.632 0.449 1.313-0.992 0.527zM5.628 15.942l-1.548 0.8-0.439-1.283 2.027-1.001-0.040 1.484zM20.727 9.322c0 0.918-0.219 1.785-0.599 2.559l-4.181-1.899c-0.044-0.573-0.341-1.075-0.788-1.388l1.464-4.86c2.378 0.756 4.105 2.974 4.105 5.588zM8.938 9.322c0-3.235 2.644-5.867 5.894-5.867 0.253 0 0.5 0.021 0.745 0.052l-1.432 4.754c-0.019-0.001-0.037-0.006-0.057-0.006-1.033 0-1.873 0.837-1.873 1.867s0.84 1.867 1.873 1.867c0.694 0 1.294-0.383 1.618-0.945l3.862 1.755c-1.075 1.446-2.795 2.39-4.737 2.39-3.25 0-5.894-2.632-5.894-5.867zM14.894 10.122c0 0.441-0.362 0.8-0.806 0.8s-0.806-0.359-0.806-0.8c0-0.441 0.362-0.8 0.806-0.8s0.806 0.359 0.806 0.8zM2.465 25.146c-0.236 0.234-0.619 0.234-0.854 0.001-0.114-0.114-0.176-0.263-0.176-0.423s0.062-0.309 0.176-0.421l0.962-0.958 0.851 0.848-0.959 0.955zM5.679 28.88c-0.236 0.234-0.619 0.235-0.855 0.001-0.114-0.114-0.176-0.263-0.176-0.423s0.062-0.309 0.176-0.421l0.963-0.959 0.852 0.848-0.96 0.955zM9.16 25.411c-0.001 0-0.001 0-0.002 0.001l-1.765 1.76-0.852-0.848 1.763-1.755c0 0 0 0 0-0s0.001-0.001 0.002-0.001c0.040-0.040 0.065-0.088 0.090-0.135 0.007-0.014 0.020-0.026 0.026-0.040 0.017-0.041 0.019-0.085 0.026-0.129 0.003-0.025 0.014-0.047 0.014-0.073 0-0.036-0.013-0.070-0.020-0.106-0.006-0.032-0.006-0.065-0.019-0.095-0.020-0.050-0.055-0.094-0.091-0.138-0.010-0.012-0.014-0.027-0.025-0.038 0 0 0 0-0.001 0s-0.001-0.002-0.001-0.002l-1.607-1.6c-0.017-0.017-0.039-0.024-0.058-0.038-0.028-0.022-0.055-0.042-0.087-0.058-0.030-0.015-0.061-0.024-0.093-0.033-0.034-0.010-0.067-0.017-0.103-0.020-0.033-0.002-0.063 0.001-0.095 0.005-0.036 0.004-0.069 0.009-0.104 0.020-0.034 0.011-0.063 0.027-0.094 0.045-0.020 0.011-0.042 0.015-0.061 0.029l-1.773 1.324-0.901-0.897 2.399-2.386 4.361 4.289-0.928 0.919zM15.979 18.394c-0.015-0.002-0.030 0.004-0.045 0.003-0.039-0.002-0.076 0.001-0.115 0.007-0.030 0.005-0.059 0.011-0.088 0.021-0.034 0.012-0.065 0.028-0.097 0.047-0.030 0.018-0.057 0.037-0.083 0.061-0.013 0.011-0.028 0.017-0.040 0.029l-4.698 5.146-4.328-4.257 2.833-2.818c0.209-0.208 0.21-0.546 0.002-0.755-0.105-0.105-0.243-0.157-0.381-0.156v-0.001l-2.219 0.013 0.028-1.607 3.104 0.027c1.265 1.294 3.029 2.101 4.981 2.101 0.437 0 0.864-0.045 1.279-0.123 0.040 0.032 0.079 0.065 0.13 0.085l2.41 0.96 0.152 0.758 0.178 0.885-3.003-0.427zM20.020 18.572l-0.313-1.558 1.446-1.080 0.947 1.257-2.080 1.381zM23.774 15.741l-0.838 0.785-0.931-1.236 0.831-0.637c0.155-0.119 0.351-0.168 0.543-0.143 0.193 0.027 0.364 0.128 0.48 0.284 0.217 0.292 0.18 0.699-0.085 0.947z"></path>
<path fill="#2e2f42" style="fill: var(--color2, #2e2f42)" d="M13.602 18.544l-2.143-2.133c-0.207-0.207-0.545-0.207-0.753 0l-2.142 2.133c-0.1 0.101-0.157 0.236-0.157 0.378s0.056 0.278 0.157 0.378l2.142 2.133c0.104 0.103 0.241 0.155 0.377 0.155s0.273-0.052 0.376-0.155l2.143-2.133c0.1-0.1 0.157-0.236 0.157-0.378s-0.057-0.278-0.157-0.378zM11.083 20.303l-1.387-1.381 1.387-1.381 1.387 1.381-1.387 1.381z"></path>
<path fill="#2e2f42" style="fill: var(--color2, #2e2f42)" d="M17.164 5.071l-0.258 1.036c0.071 0.018 1.738 0.452 1.738 2.149h1.067c-0-2.017-1.666-2.965-2.547-3.185z"></path>
<path fill="#2e2f42" style="fill: var(--color2, #2e2f42)" d="M19.711 9.322h-1.067v1.067h1.067v-1.067z"></path>
</symbol>
<symbol id="icon-diagram-1" viewBox="0 0 32 32">
<path fill="#4d5ae5" style="fill: var(--color3, #4d5ae5)" d="M14.926 14.965h1.066v4.798h-1.066v-4.797z"></path>
<path fill="#4d5ae5" style="fill: var(--color3, #4d5ae5)" d="M19.19 17.097h1.066v2.665h-1.066v-2.665z"></path>
<path fill="#4d5ae5" style="fill: var(--color3, #4d5ae5)" d="M10.661 18.696h1.066v1.066h-1.066v-1.066z"></path>
<path fill="#4d5ae5" style="fill: var(--color3, #4d5ae5)" d="M7.463 18.163h1.066v1.599h-1.066v-1.599z"></path>
<path fill="#2e2f42" style="fill: var(--color2, #2e2f42)" d="M1.599 28.291h25.587c0.883 0 1.599-0.716 1.599-1.599v-2.132c0-0.883-0.716-1.599-1.599-1.599h-0.533v-13.293l3.028-2.868c0.703 0.346 1.553 0.136 2.013-0.499s0.396-1.508-0.152-2.068-1.42-0.644-2.065-0.198c-0.644 0.446-0.873 1.292-0.542 2.002l-2.281 2.163v-1.23c0-0.883-0.716-1.599-1.599-1.599h-21.322c-0.883 0-1.599 0.716-1.599 1.599v15.992h-0.533c-0.883 0-1.599 0.716-1.599 1.599v2.132c0 0.883 0.716 1.599 1.599 1.599zM30.384 4.837c0.294 0 0.533 0.239 0.533 0.533s-0.239 0.533-0.533 0.533c-0.294 0-0.533-0.239-0.533-0.533s0.239-0.533 0.533-0.533zM3.198 6.969c0-0.294 0.239-0.533 0.533-0.533h21.322c0.294 0 0.533 0.239 0.533 0.533v2.239l-1.066 1.013v-2.186c0-0.294-0.239-0.533-0.533-0.533h-19.19c-0.294 0-0.533 0.239-0.533 0.533v13.326c0 0.294 0.239 0.533 0.533 0.533h19.19c0.294 0 0.533-0.239 0.533-0.533v-9.674l1.066-1.010v12.284h-22.388v-15.992zM7.996 13.899c-0.721-0.002-1.354 0.478-1.546 1.174s0.105 1.433 0.725 1.801c0.62 0.368 1.41 0.276 1.928-0.226l1.853 0.93c0.215 0.108 0.476 0.057 0.636-0.123l3.939-4.431 3.872 2.901c0.208 0.156 0.498 0.139 0.686-0.039l3.365-3.188v8.131h-18.124v-12.26h18.124v2.66l-3.771 3.572-3.904-2.927c-0.222-0.166-0.534-0.135-0.718 0.072l-3.993 4.493-1.493-0.746c0.011-0.064 0.018-0.129 0.020-0.193 0-0.883-0.716-1.599-1.599-1.599zM8.529 15.498c0 0.294-0.239 0.533-0.533 0.533s-0.533-0.239-0.533-0.533c0-0.294 0.239-0.533 0.533-0.533s0.533 0.239 0.533 0.533zM11.727 24.027h5.331v0.533c0 0.294-0.239 0.533-0.533 0.533h-4.264c-0.294 0-0.533-0.239-0.533-0.533v-0.533zM1.066 24.56c0-0.294 0.239-0.533 0.533-0.533h9.062v0.533c0 0.883 0.716 1.599 1.599 1.599h4.264c0.883 0 1.599-0.716 1.599-1.599v-0.533h9.062c0.294 0 0.533 0.239 0.533 0.533v2.132c0 0.294-0.239 0.533-0.533 0.533h-25.587c-0.294 0-0.533-0.239-0.533-0.533v-2.132z"></path>
</symbol>
<symbol id="icon-clock-1" viewBox="0 0 32 32">
<path fill="#2e2f42" style="fill: var(--color2, #2e2f42)" d="M31.297 15.301c-0.002-8.452-6.855-15.303-15.308-15.301s-15.303 6.855-15.301 15.308c0.001 6.658 4.307 12.551 10.649 14.576 0.061 0.019 0.124 0.029 0.187 0.029 0.121-0 0.239-0.032 0.342-0.094 0.135-0.080 0.236-0.207 0.283-0.356l3.865-12.25c1.057-0.005 1.909-0.866 1.903-1.923s-0.866-1.909-1.923-1.903c-0.284 0.001-0.565 0.067-0.82 0.191l-5.106-5.107c-0.253-0.245-0.657-0.238-0.902 0.016-0.239 0.247-0.239 0.639 0 0.886l5.103 5.109c-0.392 0.799-0.168 1.764 0.536 2.309l-3.683 11.673c-7.278-2.681-11.004-10.754-8.323-18.032s10.754-11.004 18.032-8.323c7.278 2.681 11.004 10.754 8.323 18.032-1.31 3.556-4.001 6.431-7.462 7.973l-0.398-1.874c-0.073-0.345-0.411-0.565-0.756-0.492-0.109 0.023-0.209 0.074-0.293 0.148l-3.837 3.426c-0.263 0.234-0.287 0.637-0.052 0.9 0.076 0.085 0.174 0.149 0.283 0.184l4.899 1.564c0.335 0.108 0.694-0.077 0.802-0.412 0.034-0.106 0.040-0.219 0.017-0.328l-0.391-1.839c5.664-2.388 9.342-7.942 9.329-14.089zM15.992 14.664c0.352 0 0.638 0.286 0.638 0.638s-0.286 0.638-0.638 0.638c-0.352 0-0.638-0.285-0.638-0.638s0.285-0.638 0.638-0.638zM18.093 29.528l2.184-1.948 0.603 2.84-2.787-0.892z"></path>
<path fill="#4d5ae5" style="fill: var(--color3, #4d5ae5)" d="M15.354 3.185v1.275c0 0.352 0.285 0.638 0.638 0.638s0.638-0.285 0.638-0.638v-1.275c0-0.352-0.286-0.638-0.638-0.638s-0.638 0.286-0.638 0.638z"></path>
<path fill="#4d5ae5" style="fill: var(--color3, #4d5ae5)" d="M3.876 14.664c-0.352 0-0.638 0.286-0.638 0.638s0.285 0.638 0.638 0.638h1.275c0.352 0 0.638-0.285 0.638-0.638s-0.285-0.638-0.638-0.638h-1.275z"></path>
<path fill="#4d5ae5" style="fill: var(--color3, #4d5ae5)" d="M28.108 15.939c0.352 0 0.638-0.285 0.638-0.638s-0.285-0.638-0.638-0.638h-1.275c-0.352 0-0.638 0.286-0.638 0.638s0.286 0.638 0.638 0.638h1.275z"></path>
</symbol>
<symbol id="icon-linkedin" viewBox="0 0 32 32">
<path fill="#f4f4fd" style="fill: var(--color4, #f4f4fd)" d="M31.992 32v-0.001h0.008v-11.736c0-5.741-1.236-10.164-7.948-10.164-3.227 0-5.392 1.771-6.276 3.449h-0.093v-2.913h-6.364v21.364h6.627v-10.579c0-2.785 0.528-5.479 3.977-5.479 3.399 0 3.449 3.179 3.449 5.657v10.401h6.62z"></path>
<path fill="#f4f4fd" style="fill: var(--color4, #f4f4fd)" d="M0.528 10.636h6.635v21.364h-6.635v-21.364z"></path>
<path fill="#f4f4fd" style="fill: var(--color4, #f4f4fd)" d="M3.843-0c-2.121 0-3.843 1.721-3.843 3.843s1.721 3.879 3.843 3.879c2.121 0 3.843-1.757 3.843-3.879-0.001-2.121-1.723-3.843-3.843-3.843v0z"></path>
</symbol>
<symbol id="icon-facebook" viewBox="0 0 32 32">
<path fill="#f4f4fd" style="fill: var(--color4, #f4f4fd)" d="M21.329 5.313h2.921v-5.088c-0.504-0.069-2.237-0.225-4.256-0.225-4.212 0-7.097 2.649-7.097 7.519v4.481h-4.648v5.688h4.648v14.312h5.699v-14.311h4.46l0.708-5.688h-5.169v-3.919c0.001-1.644 0.444-2.769 2.735-2.769z"></path>
</symbol>
<symbol id="icon-twitter" viewBox="0 0 32 32">
<path fill="#f4f4fd" style="fill: var(--color4, #f4f4fd)" d="M32 6.078c-1.19 0.522-2.458 0.868-3.78 1.036 1.36-0.812 2.398-2.088 2.886-3.626-1.268 0.756-2.668 1.29-4.16 1.588-1.204-1.282-2.92-2.076-4.792-2.076-3.632 0-6.556 2.948-6.556 6.562 0 0.52 0.044 1.020 0.152 1.496-5.454-0.266-10.28-2.88-13.522-6.862-0.566 0.982-0.898 2.106-0.898 3.316 0 2.272 1.17 4.286 2.914 5.452-1.054-0.020-2.088-0.326-2.964-0.808 0 0.020 0 0.046 0 0.072 0 3.188 2.274 5.836 5.256 6.446-0.534 0.146-1.116 0.216-1.72 0.216-0.42 0-0.844-0.024-1.242-0.112 0.85 2.598 3.262 4.508 6.13 4.57-2.232 1.746-5.066 2.798-8.134 2.798-0.538 0-1.054-0.024-1.57-0.090 2.906 1.874 6.35 2.944 10.064 2.944 12.072 0 18.672-10 18.672-18.668 0-0.29-0.010-0.57-0.024-0.848 1.302-0.924 2.396-2.078 3.288-3.406z"></path>
</symbol>
<symbol id="icon-instagram" viewBox="0 0 32 32">
<path fill="#f4f4fd" style="fill: var(--color4, #f4f4fd)" d="M31.969 9.408c-0.075-1.7-0.35-2.869-0.744-3.882-0.406-1.075-1.031-2.038-1.85-2.838-0.8-0.813-1.769-1.444-2.832-1.844-1.019-0.394-2.182-0.669-3.882-0.744-1.713-0.081-2.257-0.1-6.601-0.1s-4.888 0.019-6.595 0.094c-1.7 0.075-2.869 0.35-3.882 0.744-1.075 0.406-2.038 1.031-2.838 1.85-0.813 0.8-1.444 1.769-1.844 2.832-0.394 1.019-0.669 2.182-0.744 3.882-0.081 1.713-0.1 2.257-0.1 6.601s0.019 4.888 0.094 6.595c0.075 1.7 0.35 2.869 0.744 3.882 0.406 1.075 1.038 2.038 1.85 2.838 0.8 0.813 1.769 1.444 2.832 1.844 1.019 0.394 2.182 0.669 3.882 0.744 1.706 0.075 2.25 0.094 6.595 0.094s4.888-0.018 6.595-0.094c1.7-0.075 2.869-0.35 3.882-0.744 2.151-0.831 3.851-2.532 4.682-4.682 0.394-1.019 0.669-2.182 0.744-3.882 0.075-1.707 0.094-2.251 0.094-6.595s-0.006-4.888-0.081-6.595zM29.087 22.473c-0.069 1.563-0.331 2.407-0.55 2.969-0.538 1.394-1.644 2.501-3.038 3.038-0.563 0.219-1.413 0.481-2.969 0.55-1.688 0.075-2.194 0.094-6.464 0.094s-4.782-0.018-6.464-0.094c-1.563-0.069-2.407-0.331-2.969-0.55-0.694-0.256-1.325-0.663-1.838-1.194-0.531-0.519-0.938-1.144-1.194-1.838-0.219-0.563-0.481-1.413-0.55-2.969-0.075-1.688-0.094-2.194-0.094-6.464s0.019-4.782 0.094-6.464c0.069-1.563 0.331-2.407 0.55-2.969 0.256-0.694 0.663-1.325 1.2-1.838 0.519-0.531 1.144-0.938 1.838-1.194 0.563-0.219 1.413-0.481 2.969-0.55 1.688-0.075 2.194-0.094 6.464-0.094 4.276 0 4.782 0.019 6.464 0.094 1.563 0.069 2.407 0.331 2.969 0.55 0.694 0.256 1.325 0.662 1.838 1.194 0.531 0.519 0.938 1.144 1.194 1.838 0.219 0.563 0.481 1.413 0.55 2.969 0.075 1.688 0.094 2.194 0.094 6.464s-0.019 4.77-0.094 6.457z"></path>
<path fill="#f4f4fd" style="fill: var(--color4, #f4f4fd)" d="M16.059 7.782c-4.538 0-8.22 3.682-8.22 8.22s3.682 8.22 8.22 8.22c4.538 0 8.22-3.682 8.22-8.22s-3.682-8.22-8.22-8.22zM16.059 21.335c-2.944 0-5.332-2.388-5.332-5.332s2.388-5.332 5.332-5.332c2.944 0 5.332 2.388 5.332 5.332s-2.388 5.332-5.332 5.332z"></path>
<path fill="#f4f4fd" style="fill: var(--color4, #f4f4fd)" d="M26.524 7.457c0 1.060-0.859 1.919-1.919 1.919s-1.919-0.859-1.919-1.919c0-1.060 0.859-1.919 1.919-1.919s1.919 0.859 1.919 1.919z"></path>
</symbol>
<svg xmlns="http://www.w3.org/2000/svg" width="414" height="590" fill="none">
  <g filter="url(#a)">
    <rect width="408" height="584" x="3" y="2" fill="#FCFCFC" rx="4"/>
  </g>
  <defs>
    <filter id="a" width="414" height="590" x="0" y="0" color-interpolation-filters="sRGB" filterUnits="userSpaceOnUse">
      <feFlood flood-opacity="0" result="BackgroundImageFix"/>
      <feColorMatrix in="SourceAlpha" result="hardAlpha" values="0 0 0 0 0 0 0 0 0 0 0 0 0 0 0 0 0 0 127 0"/>
      <feOffset dy="2"/>
      <feGaussianBlur stdDeviation=".5"/>
      <feComposite in2="hardAlpha" operator="out"/>
      <feColorMatrix values="0 0 0 0 0 0 0 0 0 0 0 0 0 0 0 0 0 0 0.2 0"/>
      <feBlend in2="BackgroundImageFix" result="effect1_dropShadow_297022_942"/>
      <feColorMatrix in="SourceAlpha" result="hardAlpha" values="0 0 0 0 0 0 0 0 0 0 0 0 0 0 0 0 0 0 127 0"/>
      <feOffset dy="1"/>
      <feGaussianBlur stdDeviation="1.5"/>
      <feComposite in2="hardAlpha" operator="out"/>
      <feColorMatrix values="0 0 0 0 0 0 0 0 0 0 0 0 0 0 0 0 0 0 0.12 0"/>
      <feBlend in2="effect1_dropShadow_297022_942" result="effect2_dropShadow_297022_942"/>
      <feColorMatrix in="SourceAlpha" result="hardAlpha" values="0 0 0 0 0 0 0 0 0 0 0 0 0 0 0 0 0 0 127 0"/>
      <feOffset dy="1"/>
      <feGaussianBlur stdDeviation=".5"/>
      <feComposite in2="hardAlpha" operator="out"/>
      <feColorMatrix values="0 0 0 0 0 0 0 0 0 0 0 0 0 0 0 0 0 0 0.14 0"/>
      <feBlend in2="effect2_dropShadow_297022_942" result="effect3_dropShadow_297022_942"/>
      <feBlend in="SourceGraphic" in2="effect3_dropShadow_297022_942" result="shape"/>
    </filter>
  </defs>
</svg>
</defs>
</svg>
